<svg width="30" height="30" viewBox="0 0 30 30" fill="none" xmlns="http://www.w3.org/2000/svg">
<path d="M3.75 23.75V11.25C3.75 10.5625 3.995 9.97417 4.485 9.485C4.975 8.99583 5.56333 8.75083 6.25 8.75H11.25V7.28125C11.25 6.94792 11.3125 6.63 11.4375 6.3275C11.5625 6.025 11.7396 5.75958 11.9688 5.53125L13.2188 4.28125C13.6979 3.80208 14.2917 3.5625 15 3.5625C15.7083 3.5625 16.3021 3.80208 16.7812 4.28125L18.0312 5.53125C18.2604 5.76042 18.4375 6.02625 18.5625 6.32875C18.6875 6.63125 18.75 6.94875 18.75 7.28125V13.75H23.75C24.4375 13.75 25.0263 13.995 25.5163 14.485C26.0063 14.975 26.2508 15.5633 26.25 16.25V23.75C26.25 24.4375 26.0054 25.0262 25.5163 25.5163C25.0271 26.0063 24.4383 26.2508 23.75 26.25H6.25C5.5625 26.25 4.97417 26.0054 4.485 25.5163C3.99583 25.0271 3.75083 24.4383 3.75 23.75ZM6.25 23.75H8.75V21.25H6.25V23.75ZM6.25 18.75H8.75V16.25H6.25V18.75ZM6.25 13.75H8.75V11.25H6.25V13.75ZM13.75 23.75H16.25V21.25H13.75V23.75ZM13.75 18.75H16.25V16.25H13.75V18.75ZM13.75 13.75H16.25V11.25H13.75V13.75ZM13.75 8.75H16.25V6.25H13.75V8.75ZM21.25 23.75H23.75V21.25H21.25V23.75ZM21.25 18.75H23.75V16.25H21.25V18.75Z" fill="#283618"/>
</svg>
