<svg width="30" height="30" viewBox="0 0 30 30" fill="none" xmlns="http://www.w3.org/2000/svg">
<path d="M14.7 16.5H19.5C19.925 16.5 20.2815 16.356 20.5695 16.068C20.8575 15.78 21.001 15.424 21 15C20.999 14.576 20.855 14.22 20.568 13.932C20.281 13.644 19.925 13.5 19.5 13.5H14.7L16.05 12.15C16.325 11.875 16.4625 11.525 16.4625 11.1C16.4625 10.675 16.325 10.325 16.05 10.05C15.775 9.77499 15.425 9.63749 15 9.63749C14.575 9.63749 14.225 9.77499 13.95 10.05L10.05 13.95C9.75 14.25 9.6 14.6 9.6 15C9.6 15.4 9.75 15.75 10.05 16.05L13.95 19.95C14.225 20.225 14.575 20.3625 15 20.3625C15.425 20.3625 15.775 20.225 16.05 19.95C16.325 19.675 16.4625 19.325 16.4625 18.9C16.4625 18.475 16.325 18.125 16.05 17.85L14.7 16.5ZM15 30C12.925 30 10.975 29.606 9.15 28.818C7.325 28.03 5.7375 26.9615 4.3875 25.6125C3.0375 24.2635 1.969 22.676 1.182 20.85C0.395002 19.024 0.0010019 17.074 1.89873e-06 15C-0.000998101 12.926 0.393002 10.976 1.182 9.14999C1.971 7.324 3.0395 5.7365 4.3875 4.3875C5.7355 3.0385 7.323 1.97 9.15 1.182C10.977 0.394 12.927 0 15 0C17.073 0 19.023 0.394 20.85 1.182C22.677 1.97 24.2645 3.0385 25.6125 4.3875C26.9605 5.7365 28.0295 7.324 28.8195 9.14999C29.6095 10.976 30.003 12.926 30 15C29.997 17.074 29.603 19.024 28.818 20.85C28.033 22.676 26.9645 24.2635 25.6125 25.6125C24.2605 26.9615 22.673 28.0305 20.85 28.8195C19.027 29.6085 17.077 30.002 15 30Z" fill="#FFFDF3"/>
</svg>
