<svg width="30" height="30" viewBox="0 0 30 30" fill="none" xmlns="http://www.w3.org/2000/svg">
<path d="M11.0625 19.5625L22.1875 16.625C22.5 16.5417 22.7346 16.3492 22.8913 16.0475C23.0479 15.7458 23.0842 15.4383 23 15.125C22.9158 14.8117 22.7337 14.5775 22.4537 14.4225C22.1737 14.2675 21.8767 14.2308 21.5625 14.3125L18.5 15.125L13.5 10.4375L11.75 10.875L14.75 16.125L11.75 16.875L10.1875 15.6875L9 16L11.0625 19.5625ZM25 25H5C4.3125 25 3.72417 24.7554 3.235 24.2663C2.74583 23.7771 2.50083 23.1883 2.5 22.5V17.5C3.1875 17.5 3.77625 17.2554 4.26625 16.7663C4.75625 16.2771 5.00083 15.6883 5 15C4.99917 14.3117 4.75458 13.7233 4.26625 13.235C3.77792 12.7467 3.18917 12.5017 2.5 12.5V7.5C2.5 6.8125 2.745 6.22417 3.235 5.735C3.725 5.24583 4.31333 5.00083 5 5H25C25.6875 5 26.2763 5.245 26.7663 5.735C27.2563 6.225 27.5008 6.81333 27.5 7.5V22.5C27.5 23.1875 27.2554 23.7763 26.7663 24.2663C26.2771 24.7563 25.6883 25.0008 25 25Z" fill="#FFFDF3"/>
</svg>