<svg width="30" height="30" viewBox="0 0 30 30" fill="none" xmlns="http://www.w3.org/2000/svg">
<path d="M15 30C12.925 30 10.975 29.606 9.15 28.818C7.325 28.03 5.7375 26.9615 4.3875 25.6125C3.0375 24.2635 1.969 22.676 1.182 20.85C0.395002 19.024 0.0010019 17.074 1.89873e-06 15C-0.000998101 12.926 0.393002 10.976 1.182 9.15C1.971 7.324 3.0395 5.7365 4.3875 4.3875C5.7355 3.0385 7.323 1.97 9.15 1.182C10.977 0.394 12.927 0 15 0C17.073 0 19.023 0.394 20.85 1.182C22.677 1.97 24.2645 3.0385 25.6125 4.3875C26.9605 5.7365 28.0295 7.324 28.8195 9.15C29.6095 10.976 30.003 12.926 30 15C29.997 17.074 29.603 19.024 28.818 20.85C28.033 22.676 26.9645 24.2635 25.6125 25.6125C24.2605 26.9615 22.673 28.0305 20.85 28.8195C19.027 29.6085 17.077 30.002 15 30ZM15.3 16.5L13.95 17.85C13.675 18.125 13.5375 18.475 13.5375 18.9C13.5375 19.325 13.675 19.675 13.95 19.95C14.225 20.225 14.575 20.3625 15 20.3625C15.425 20.3625 15.775 20.225 16.05 19.95L19.95 16.05C20.25 15.75 20.4 15.4 20.4 15C20.4 14.6 20.25 14.25 19.95 13.95L16.05 10.05C15.775 9.775 15.425 9.6375 15 9.6375C14.575 9.6375 14.225 9.775 13.95 10.05C13.675 10.325 13.5375 10.675 13.5375 11.1C13.5375 11.525 13.675 11.875 13.95 12.15L15.3 13.5H10.5C10.075 13.5 9.719 13.644 9.432 13.932C9.145 14.22 9.001 14.576 9 15C8.999 15.424 9.143 15.7805 9.432 16.0695C9.721 16.3585 10.077 16.502 10.5 16.5H15.3Z" fill="#FFFDF3"/>
</svg>
