<svg width="30" height="30" viewBox="0 0 30 30" fill="none" xmlns="http://www.w3.org/2000/svg">
<path d="M2.01239 15.2375C2.43739 15.7875 3.21239 15.8875 3.76239 15.475L4.99989 14.525V25C4.99989 25.6875 5.56239 26.25 6.24989 26.25H23.7499C24.4374 26.25 24.9999 25.6875 24.9999 25V14.525L26.2374 15.475C26.7874 15.9 27.5749 15.7875 27.9874 15.2375C28.0878 15.1074 28.1614 14.9587 28.2039 14.8C28.2463 14.6412 28.2568 14.4756 28.2347 14.3128C28.2126 14.15 28.1584 13.9932 28.0752 13.8515C27.9919 13.7098 27.8814 13.5861 27.7499 13.4875L15.7499 4.32499C15.2999 3.98749 14.6749 3.98749 14.2374 4.32499L2.23739 13.4875C1.69989 13.9125 1.58739 14.7 2.01239 15.2375ZM9.99989 18.75C9.31239 18.75 8.74989 18.1875 8.74989 17.5C8.74989 16.8125 9.31239 16.25 9.99989 16.25C10.6874 16.25 11.2499 16.8125 11.2499 17.5C11.2499 18.1875 10.6874 18.75 9.99989 18.75ZM14.9999 18.75C14.3124 18.75 13.7499 18.1875 13.7499 17.5C13.7499 16.8125 14.3124 16.25 14.9999 16.25C15.6874 16.25 16.2499 16.8125 16.2499 17.5C16.2499 18.1875 15.6874 18.75 14.9999 18.75ZM19.9999 18.75C19.3124 18.75 18.7499 18.1875 18.7499 17.5C18.7499 16.8125 19.3124 16.25 19.9999 16.25C20.6874 16.25 21.2499 16.8125 21.2499 17.5C21.2499 18.1875 20.6874 18.75 19.9999 18.75Z" fill="#FFFDF3"/>
</svg>
