<svg width="30" height="30" viewBox="0 0 30 30" fill="none" xmlns="http://www.w3.org/2000/svg">
<path d="M5 17.5C5 15.3125 5.52083 13.3646 6.5625 11.6562C7.60417 9.94792 8.75 8.51042 10 7.34375C11.25 6.17708 12.3958 5.28625 13.4375 4.67125L15 3.75V7.875C15 8.64583 15.2604 9.255 15.7812 9.7025C16.3021 10.15 16.8854 10.3742 17.5312 10.375C17.8854 10.375 18.2242 10.3021 18.5475 10.1562C18.8708 10.0104 19.1675 9.77083 19.4375 9.4375L20 8.75C21.5 9.625 22.7083 10.8383 23.625 12.39C24.5417 13.9417 25 15.645 25 17.5C25 19.3333 24.5521 21.0054 23.6562 22.5163C22.7604 24.0271 21.5833 25.2192 20.125 26.0925C20.4792 25.5925 20.7554 25.0458 20.9538 24.4525C21.1521 23.8592 21.2508 23.2292 21.25 22.5625C21.25 21.7292 21.0938 20.9425 20.7812 20.2025C20.4688 19.4625 20.0208 18.8012 19.4375 18.2188L15 13.875L10.5938 18.2188C9.98958 18.8229 9.53125 19.4896 9.21875 20.2188C8.90625 20.9479 8.75 21.7292 8.75 22.5625C8.75 23.2292 8.84917 23.8596 9.0475 24.4538C9.24583 25.0479 9.52167 25.5946 9.875 26.0938C8.41667 25.2188 7.23958 24.0258 6.34375 22.515C5.44792 21.0042 5 19.3325 5 17.5ZM15 17.375L17.6562 19.9688C18.0104 20.3229 18.2812 20.7188 18.4688 21.1562C18.6562 21.5937 18.75 22.0625 18.75 22.5625C18.75 23.5833 18.3854 24.4533 17.6562 25.1725C16.9271 25.8917 16.0417 26.2508 15 26.25C13.9583 26.2492 13.0729 25.89 12.3438 25.1725C11.6146 24.455 11.25 23.585 11.25 22.5625C11.25 22.0833 11.3438 21.62 11.5313 21.1725C11.7188 20.725 11.9896 20.3237 12.3438 19.9688L15 17.375Z" fill="#FFFDF3"/>
</svg>
