<svg width="30" height="30" viewBox="0 0 30 30" fill="none" xmlns="http://www.w3.org/2000/svg">
<path d="M8.75 26.25C8.0625 26.25 7.47417 26.0054 6.985 25.5163C6.49583 25.0271 6.25083 24.4383 6.25 23.75V10C6.25 9.3125 6.495 8.72417 6.985 8.235C7.475 7.74583 8.06333 7.50083 8.75 7.5H11.25V5C11.25 4.3125 11.495 3.72417 11.985 3.235C12.475 2.74583 13.0633 2.50083 13.75 2.5H16.25C16.9375 2.5 17.5262 2.745 18.0163 3.235C18.5063 3.725 18.7508 4.31333 18.75 5V7.5H21.25C21.9375 7.5 22.5263 7.745 23.0163 8.235C23.5063 8.725 23.7508 9.31333 23.75 10V23.75C23.75 24.4375 23.5054 25.0263 23.0163 25.5163C22.5271 26.0063 21.9383 26.2508 21.25 26.25C21.25 26.6042 21.13 26.9012 20.89 27.1412C20.65 27.3812 20.3533 27.5008 20 27.5C19.6467 27.4992 19.35 27.3792 19.11 27.14C18.87 26.9008 18.75 26.6042 18.75 26.25H11.25C11.25 26.6042 11.13 26.9012 10.89 27.1412C10.65 27.3812 10.3533 27.5008 10 27.5C9.64667 27.4992 9.35 27.3792 9.11 27.14C8.87 26.9008 8.75 26.6042 8.75 26.25ZM11.25 22.5H13.75V11.25H11.25V22.5ZM16.25 22.5H18.75V11.25H16.25V22.5ZM13.75 7.5H16.25V5H13.75V7.5Z" fill="#FFFDF3"/>
</svg>